<svg xmlns="http://www.w3.org/2000/svg" width="96" height="96" preserveAspectRatio="xMidYMid meet" version="1.0" viewBox="0 0 72 72"><metadata>Created by potrace 1.15, written by Peter Selinger 2001-2017</metadata><g fill="#000" stroke="none"><path d="M50 282 c-32 -26 -38 -90 -10 -124 17 -22 30 -28 61 -28 45 0 83 16 73 31 -3 6 -24 7 -49 4 -37 -6 -45 -4 -59 16 -15 22 -16 22 -16 4 -1 -19 -1 -19 -11 -2 -18 31 13 107 44 107 6 0 1 -11 -12 -23 -35 -38 -20 -55 55 -59 l65 -3 -7 30 c-12 60 -86 86 -134 47z" transform="translate(0.000000,72.000000) scale(0.100000,-0.100000)"/></g></svg>